<svg xmlns="http://www.w3.org/2000/svg" width="290.194" height="288.244" viewBox="0 0 290.194 288.244">
  <g id="Group_4" data-name="Group 4" transform="translate(0 0)">
    <g id="Group_3" data-name="Group 3">
      <g id="Group_2" data-name="Group 2">
        <g id="Group_1" data-name="Group 1">
          <path id="Path_24" data-name="Path 24" d="M19.855,0l-.13.229L19.9.13ZM-5.61,0-5.7.13l.175.1Z" transform="translate(157.593 163.29)" fill="#07a267"/>
          <path id="Path_25" data-name="Path 25" d="M13.341,0V288.235A17.171,17.171,0,0,1-3.83,271.064V17.171A17.171,17.171,0,0,1,13.341,0" transform="translate(3.83 0.009)" fill="#07a267"/>
          <path id="Path_26" data-name="Path 26" d="M96.56,0,74.592,38.78l-2.425,4.4-2.551,4.394L66.159,53.58l-4.125,7.173-.045.13L56.027,71.468,47.105,86.976l-1.744,3.049L43.523,93.3l-4.308,7.483-10,17.485L25.9,124l.045.045-1.883,3.232-2.425,4.264-4.972,8.648-.045.045-.045-.139-.054.054-.04.04-.22-.4-6.68-11.657-2.425-4.08.04-.045-3.264-5.734L-6.107,100.793l-4.268-7.483-1.883-3.277-1.695-2.959-8.881-15.6-4.887-8.648V30.316l4.887,8.554L-14.5,53.58l2.242,3.856,1.883,3.273L-6.107,68.2,3.935,85.77l12.553,21.923.094-.139L45.365,57.435,56.045,38.87l5.994-10.576,6.505-11.388L78.085,0Z" transform="translate(148.523 0.009)" fill="#07a267"/>
          <path id="Path_27" data-name="Path 27" d="M.143.178-.041.088l.09-.139Z" transform="translate(151.93 163.341)" fill="#07a267"/>
          <path id="Path_28" data-name="Path 28" d="M.143.108-.041.2.1-.031Z" transform="translate(177.35 163.321)" fill="#07a267"/>
          <path id="Path_29" data-name="Path 29" d="M.15,21.318,17.41-6.12l-.1,161.071A18.229,18.229,0,0,1-.043,142.245V121.8Z" transform="translate(225.956 133.266)" fill="#07a267"/>
          <path id="Path_30" data-name="Path 30" d="M12.366,0V.134L-3.55,27.976v-.09Z" transform="translate(234.304 76.489)" fill="#07a267"/>
          <path id="Path_31" data-name="Path 31" d="M131.592,0,113.129,32.5,101.114,53.575,88.068,76.489,72.152,104.371,51.977,139.748,33.461,172.207l-4.3,7.487L16.873,201.3,6.517,219.412l-22.685-39.717-4.259-7.487-17.35-30.4v-32.2l17.35,30.262,4.259,7.487L6.517,186.948l22.641-39.587,4.3-7.487,49.5-86.3L113.479,0Z" transform="translate(158.602 0.009)" fill="#07a267"/>
          <path id="Path_32" data-name="Path 32" d="M13.341,0V223.2a17.216,17.216,0,0,1-4.987,12.23,17.216,17.216,0,0,1-12.184,5.1V30.365Z" transform="translate(276.826 47.707)" fill="#07a267"/>
          <path id="Path_33" data-name="Path 33" d="M0,0V288.235a17.149,17.149,0,0,0,17.171-17.171V17.171A17.149,17.149,0,0,0,0,0" transform="translate(80.399 0)" fill="#07a267"/>
          <path id="Path_34" data-name="Path 34" d="M169.323-263.834H152.775v-51.741h16.548Z" transform="translate(-111.959 315.576)" fill="#07a267"/>
          <path id="Path_35" data-name="Path 35" d="M169.323-189.874H152.775V-295.168h16.548Z" transform="translate(-111.959 386.663)" fill="#07a267"/>
          <path id="Path_36" data-name="Path 36" d="M169.323-212.272H152.775v-50.213h16.548Z" transform="translate(-111.959 500.507)" fill="#07a267"/>
        </g>
      </g>
    </g>
  </g>
</svg>
